# xmcd CD database file
#
# Track frame offsets:
#	150
#	17409
#	37677
#	54935
#
# Disc length: 1001 seconds
#
# Revision: 2
# Processed by: cddbd v1.5.2PL0 Copyright (c) Steve Scherf et al.
# Submitted via: CDex 1.70beta3
#
DISCID=1c03e704
DTITLE=フェアリーズ - Mr.Platonic
DYEAR=2015
DGENRE=VISION FACTORY
TTITLE0=Mr.Platonic
TTITLE1=マーガレット (Instrumental)
TTITLE2=Mr.Platonic
TTITLE3=マーガレット (Instrumental)
EXTD=YEAR: 2015
EXTT0=
EXTT1=
EXTT2=
EXTT3=
PLAYORDER=
